<?xml version="1.0" standalone="no"?>
<!DOCTYPE svg PUBLIC "-//W3C//DTD SVG 20010904//EN"
 "http://www.w3.org/TR/2001/REC-SVG-20010904/DTD/svg10.dtd">
<svg version="1.0" xmlns="http://www.w3.org/2000/svg"
 width="1080.000000pt" height="1080.000000pt" viewBox="0 0 1080.000000 1080.000000"
 preserveAspectRatio="xMidYMid meet">

<g transform="translate(0.000000,1080.000000) scale(0.100000,-0.100000)"
fill="#FFFFFF" stroke="none">
<path d="M5345 9948 c-27 -46 -168 -285 -313 -533 -145 -247 -264 -451 -266
-453 -3 -3 -131 52 -844 363 -161 71 -295 126 -298 123 -2 -3 11 -171 31 -374
51 -512 83 -859 81 -861 0 -1 -271 -60 -601 -133 -330 -72 -604 -132 -608
-133 -5 -2 176 -210 402 -464 226 -254 411 -467 411 -473 0 -6 -157 -188 -348
-403 -470 -529 -470 -529 -446 -539 10 -4 282 -64 604 -134 322 -69 586 -127
587 -128 2 -2 -9 -119 -82 -860 -20 -203 -35 -372 -33 -376 3 -8 60 16 687
291 250 110 455 198 456 197 2 -2 94 -158 205 -348 395 -676 423 -721 436
-707 7 6 87 140 179 297 337 573 440 742 452 747 6 3 256 -102 555 -233 299
-130 553 -239 564 -241 18 -4 21 -1 18 19 -13 90 -116 1199 -111 1204 10 10
150 43 660 155 550 120 537 117 537 128 0 11 -129 160 -499 576 -171 193 -311
352 -311 355 0 3 185 212 410 465 226 253 410 463 410 467 0 5 -4 8 -8 8 -17
0 -1196 260 -1200 265 -5 4 102 1142 113 1208 2 15 0 27 -6 27 -5 0 -242 -102
-527 -226 -284 -124 -538 -235 -564 -245 l-47 -18 -84 142 c-47 78 -178 302
-292 497 -206 351 -253 430 -258 430 -1 0 -25 -37 -52 -82z m148 -400 c131
-220 357 -608 379 -651 l19 -39 -103 -136 c-132 -175 -373 -478 -385 -485 -15
-9 -493 599 -493 627 0 26 480 837 491 830 4 -2 45 -68 92 -146z m-1113 -602
c307 -135 359 -161 387 -194 75 -86 375 -474 370 -478 -4 -4 -382 127 -694
239 -26 10 -76 71 -247 302 -119 160 -216 293 -216 297 0 10 -4 12 400 -166z
m2434 162 c-18 -30 -399 -545 -418 -565 -14 -14 -144 -66 -375 -148 -195 -69
-358 -124 -362 -123 -4 2 82 118 191 258 l198 254 79 35 c43 19 213 94 378
167 165 73 304 133 308 133 5 1 5 -5 1 -11z m-2748 -396 l211 -282 7 -268 c3
-147 9 -325 12 -396 5 -87 3 -127 -4 -122 -5 3 -93 124 -195 269 l-185 263
-41 404 c-23 223 -41 414 -41 425 1 25 -22 53 236 -293z m2878 58 c-13 -135
-32 -324 -42 -420 l-18 -175 -159 -225 c-87 -124 -172 -245 -189 -269 l-31
-43 -3 28 c-2 16 1 195 7 398 l12 369 220 294 c121 162 222 293 224 291 2 -1
-8 -113 -21 -248z m-2054 -589 l415 -148 6 -74 c8 -98 10 -744 3 -790 l-6 -37
-419 140 -419 140 0 58 c0 122 -20 767 -25 813 -5 41 -3 47 12 46 10 0 205
-67 433 -148z m1457 22 c-4 -71 -10 -277 -13 -459 l-7 -330 -421 -142 -421
-143 -3 447 c-1 246 0 449 2 451 7 8 840 302 855 303 12 0 13 -22 8 -127z
m-2524 -195 c50 -63 205 -280 325 -457 104 -154 104 -154 81 -166 -29 -15
-447 -171 -619 -231 -118 -41 -125 -42 -143 -26 -21 18 -585 654 -617 695
l-19 24 262 57 c394 85 671 144 684 145 6 1 27 -18 46 -41z m3477 -17 c151
-33 357 -78 457 -100 101 -23 185 -41 188 -41 14 0 0 -25 -47 -82 -50 -60
-516 -586 -564 -637 l-23 -24 -63 23 c-155 56 -703 262 -706 265 -9 9 457 655
472 655 6 0 135 -27 286 -59z m-2726 -786 c404 -130 677 -228 672 -241 -13
-34 -492 -694 -504 -694 -10 0 -540 152 -719 207 -84 25 -153 50 -153 54 0 18
540 719 554 719 5 0 73 -20 150 -45z m1833 6 c126 -152 528 -680 522 -686 -6
-5 -366 -112 -643 -190 -140 -40 -241 -64 -245 -58 -3 5 -54 74 -112 154 -197
267 -379 524 -379 536 0 6 28 21 63 33 178 62 743 250 752 250 6 0 25 -18 42
-39z m-2274 -53 c-6 -7 -112 -146 -236 -309 -184 -240 -233 -298 -259 -306
-18 -6 -176 -61 -352 -122 -175 -62 -321 -110 -323 -107 -5 4 267 317 447 514
108 119 62 95 475 252 236 91 265 100 248 78z m2798 -87 c397 -148 342 -114
542 -340 268 -301 366 -415 363 -418 -4 -4 -410 134 -591 200 l-120 44 -123
159 c-306 395 -350 454 -343 454 5 0 127 -44 272 -99z m-1495 -248 c15 -20
131 -176 256 -346 l228 -309 -117 -172 c-255 -373 -394 -571 -402 -574 -5 -2
-54 61 -109 140 -177 254 -412 600 -412 605 0 15 508 693 519 693 5 0 21 -17
37 -37z m-1563 -474 c331 -95 583 -171 591 -179 5 -5 -103 -45 -240 -89 -403
-130 -386 -125 -457 -111 -135 26 -741 161 -754 169 -9 4 59 32 179 74 106 37
263 92 348 122 85 30 163 54 173 54 10 1 82 -17 160 -40z m3518 -63 c411 -141
402 -137 392 -146 -7 -8 -436 -105 -706 -161 -125 -26 -69 -37 -484 97 -145
47 -263 88 -263 92 0 8 705 220 736 221 11 1 157 -46 325 -103z m-2698 -298
c4 -35 9 -223 13 -418 l7 -355 -424 -184 c-233 -102 -434 -189 -447 -194 -12
-6 -24 -8 -26 -6 -7 6 90 968 97 976 8 8 737 241 758 242 13 1 18 -13 22 -61z
m1811 -58 c209 -66 381 -121 382 -123 7 -7 97 -967 92 -973 -7 -6 -875 368
-889 383 -7 8 8 799 16 821 2 6 8 12 12 12 5 0 179 -54 387 -120z m-1557 -160
c33 -47 131 -188 217 -313 l156 -229 0 -366 c0 -202 -4 -373 -9 -380 -6 -10
-14 -3 -31 25 -12 21 -107 183 -211 361 l-188 322 -7 343 c-4 230 -3 339 4
332 5 -5 37 -48 69 -95z m976 -237 l-6 -338 -200 -343 c-110 -189 -208 -353
-218 -365 -18 -21 -18 -10 -19 363 l0 386 151 219 c175 255 288 415 294 415 2
0 1 -152 -2 -337z"/>
<path d="M2685 3350 c-140 -22 -262 -86 -353 -185 -103 -113 -151 -232 -172
-430 -34 -310 81 -587 296 -717 199 -121 533 -128 747 -16 92 48 195 155 245
254 65 130 75 181 75 394 -1 162 -4 194 -23 255 -71 227 -220 373 -435 430
-73 19 -297 28 -380 15z m277 -292 c85 -36 150 -131 177 -256 16 -77 14 -267
-4 -337 -18 -68 -57 -150 -88 -183 -49 -53 -105 -76 -196 -80 -83 -3 -88 -2
-141 30 -66 40 -121 110 -144 185 -40 125 -40 342 -1 455 22 62 81 144 123
170 82 51 180 57 274 16z"/>
<path d="M3740 2640 l0 -700 468 2 467 3 0 135 0 135 -282 3 -283 2 0 334 c0
183 -3 435 -7 559 l-6 227 -179 0 -178 0 0 -700z"/>
<path d="M4835 3328 c-3 -7 -4 -321 -3 -698 l3 -685 180 0 180 0 3 283 2 282
265 0 265 0 0 130 0 130 -265 0 -265 0 0 149 0 149 275 7 275 7 0 129 0 129
-455 0 c-355 0 -457 -3 -460 -12z"/>
<path d="M8996 3323 c-3 -10 -28 -128 -56 -263 -28 -135 -91 -438 -141 -674
-50 -235 -87 -431 -84 -435 11 -10 313 -7 324 4 6 6 30 123 55 260 84 461 120
645 126 645 7 0 124 -358 228 -695 l67 -220 157 -3 c143 -2 157 -1 162 15 3
10 32 122 66 248 142 544 174 657 182 633 9 -27 61 -302 122 -641 24 -130 45
-239 47 -242 7 -7 338 -9 345 -2 4 3 -54 315 -127 692 l-133 685 -209 -2 -209
-3 -49 -160 c-154 -501 -213 -685 -220 -678 -4 4 -12 24 -17 43 -11 38 -217
724 -233 778 l-11 32 -193 0 c-176 0 -194 -2 -199 -17z"/>
<path d="M195 3308 c2 -13 61 -313 130 -668 70 -355 129 -655 132 -667 5 -23
6 -23 212 -23 l207 0 122 395 c67 218 128 410 135 427 14 33 25 -1 225 -667
l48 -160 197 -3 c108 -1 197 0 197 2 0 12 278 1340 286 1369 5 16 -7 17 -165
17 -169 0 -171 0 -176 -22 -2 -13 -39 -210 -80 -438 -41 -228 -79 -424 -84
-435 -9 -21 -67 151 -228 670 l-69 220 -160 3 -161 2 -28 -107 c-55 -212 -205
-768 -211 -783 -4 -10 -10 -1 -16 25 -10 43 -158 849 -158 859 0 3 -81 6 -180
6 l-180 0 5 -22z"/>
<path d="M5942 2638 l3 -693 183 -3 182 -2 0 275 0 275 73 0 c88 0 131 -19
168 -75 34 -51 87 -186 135 -341 l38 -122 50 -6 c28 -3 113 -6 189 -6 107 0
137 3 137 13 0 17 -118 351 -172 486 -44 111 -73 153 -121 178 l-31 15 48 19
c92 35 138 77 187 169 20 39 23 60 24 155 0 95 -3 116 -23 157 -31 62 -98 123
-180 161 l-67 32 -413 3 -412 3 2 -693z m655 404 c23 -12 49 -32 57 -44 23
-33 21 -123 -4 -163 -32 -52 -78 -68 -217 -73 l-123 -5 0 158 0 157 123 -4
c101 -3 129 -7 164 -26z"/>
<path d="M7652 3303 c-5 -16 -118 -316 -250 -668 -132 -352 -244 -652 -247
-667 l-7 -28 181 0 182 0 13 33 c7 17 32 85 56 150 l42 117 262 -2 261 -3 49
-142 48 -143 199 0 c110 0 199 2 199 4 0 2 -15 44 -34 92 -19 49 -133 350
-254 669 -121 319 -224 588 -227 598 -7 15 -27 17 -235 17 l-228 0 -10 -27z
m248 -278 c0 -3 34 -118 76 -257 59 -198 73 -253 62 -259 -17 -11 -299 -11
-315 -1 -10 6 -2 41 31 145 68 213 128 377 137 377 5 0 9 -2 9 -5z"/>
</g>
</svg>
